<?xml version="1.0" encoding="UTF-8"?>
<svg id="Capa_2" data-name="Capa 2" xmlns="http://www.w3.org/2000/svg" viewBox="0 0 648.69 254.48">
  <defs>
    <style>
      .cls-1 {
        stroke-miterlimit: 10;
      }

      .cls-1, .cls-2, .cls-3 {
        stroke: #000;
        stroke-width: 12px;
      }

      .cls-1, .cls-3 {
        fill: none;
      }

      .cls-4 {
        opacity: 0;
      }

      .cls-4, .cls-5, .cls-6 {
        stroke-width: 0px;
      }

      .cls-2 {
        fill: #ff7900;
        stroke-linejoin: round;
      }

      .cls-6 {
        fill: #fff;
      }
    </style>
  </defs>
  <g id="Layer_3" data-name="Layer 3">
    <g>
      <g>
        <polygon class="cls-2" points="642.69 248.48 6 248.48 66 127.24 6 6 642.69 6 582.69 127.24 642.69 248.48"/>
        <g>
          <path class="cls-5" d="M88.7,125.34h37.77c22.29,0,36.64,11.46,36.64,30.97v.25c0,20.78-15.99,31.73-37.9,31.73h-12.09v25.18h-24.43v-88.14ZM124.71,169.16c8.69,0,13.98-4.53,13.98-11.46v-.25c0-7.55-5.29-11.58-14.1-11.58h-11.46v23.29h11.58Z"/>
          <path class="cls-4" d="M188.8,124.71h23.55l37.52,88.77h-26.19l-6.42-15.74h-34l-6.3,15.74h-25.69l37.52-88.77ZM210.2,178.73l-9.82-25.06-9.95,25.06h19.77Z"/>
          <path class="cls-5" d="M244.2,200.38l13.6-16.24c8.69,6.92,18.38,10.58,28.58,10.58,6.55,0,10.07-2.27,10.07-6.04v-.25c0-3.65-2.9-5.67-14.86-8.44-18.76-4.28-33.24-9.57-33.24-27.7v-.25c0-16.37,12.97-28.21,34.12-28.21,14.98,0,26.69,4.03,36.26,11.71l-12.21,17.25c-8.06-5.67-16.87-8.69-24.68-8.69-5.92,0-8.81,2.52-8.81,5.67v.25c0,4.03,3.02,5.79,15.24,8.56,20.27,4.41,32.86,10.96,32.86,27.45v.25c0,18.01-14.23,28.71-35.63,28.71-15.61,0-30.47-4.91-41.3-14.61Z"/>
          <path class="cls-5" d="M318.74,200.38l13.6-16.24c8.69,6.92,18.38,10.58,28.58,10.58,6.55,0,10.07-2.27,10.07-6.04v-.25c0-3.65-2.9-5.67-14.86-8.44-18.76-4.28-33.24-9.57-33.24-27.7v-.25c0-16.37,12.97-28.21,34.12-28.21,14.98,0,26.69,4.03,36.26,11.71l-12.21,17.25c-8.06-5.67-16.87-8.69-24.68-8.69-5.92,0-8.81,2.52-8.81,5.67v.25c0,4.03,3.02,5.79,15.24,8.56,20.27,4.41,32.86,10.96,32.86,27.45v.25c0,18.01-14.23,28.71-35.63,28.71-15.61,0-30.47-4.91-41.3-14.61Z"/>
          <path class="cls-5" d="M398.82,188.93h24.93v24.55h-24.93v-24.55Z"/>
          <path class="cls-5" d="M423.87,169.66v-.25c0-25.69,19.77-45.83,46.46-45.83,18.01,0,29.59,7.55,37.4,18.38l-18.38,14.23c-5.04-6.29-10.83-10.32-19.27-10.32-12.34,0-21.03,10.45-21.03,23.29v.25c0,13.22,8.69,23.55,21.03,23.55,9.19,0,14.61-4.28,19.9-10.7l18.38,13.09c-8.31,11.46-19.52,19.89-39.03,19.89-25.18,0-45.46-19.26-45.46-45.58Z"/>
          <path class="cls-5" d="M512.51,125.34h24.43v66.74h42.69v21.41h-67.11v-88.14Z"/>
        </g>
        <g>
          <g>
            <path class="cls-6" d="M133.08,111.38l13.6-16.24c8.69,6.92,18.38,10.58,28.58,10.58,6.55,0,10.07-2.27,10.07-6.04v-.25c0-3.65-2.9-5.67-14.86-8.44-18.76-4.28-33.24-9.57-33.24-27.7v-.25c0-16.37,12.97-28.21,34.12-28.21,14.98,0,26.69,4.03,36.26,11.71l-12.21,17.25c-8.06-5.67-16.87-8.69-24.68-8.69-5.92,0-8.81,2.52-8.81,5.67v.25c0,4.03,3.02,5.79,15.24,8.56,20.27,4.41,32.86,10.96,32.86,27.45v.25c0,18.01-14.23,28.71-35.63,28.71-15.61,0-30.47-4.91-41.3-14.61Z"/>
            <path class="cls-6" d="M215.55,36.34h24.43v32.99h31.35v-32.99h24.43v88.14h-24.43v-33.49h-31.35v33.49h-24.43V36.34Z"/>
            <path class="cls-6" d="M302.05,80.66v-.25c0-25.31,20.4-45.83,47.6-45.83s47.34,20.27,47.34,45.58v.25c0,25.31-20.4,45.83-47.6,45.83s-47.34-20.27-47.34-45.58ZM372.06,80.66v-.25c0-12.72-9.19-23.8-22.67-23.8s-22.29,10.83-22.29,23.55v.25c0,12.72,9.19,23.8,22.54,23.8s22.41-10.83,22.41-23.55Z"/>
            <path class="cls-6" d="M392.46,36.34h25.81l15.36,51,17-51.25h21.03l17,51.25,15.36-51h25.31l-29.46,88.77h-21.28l-17.75-50.74-17.63,50.74h-21.28l-29.46-88.77Z"/>
          </g>
          <g>
            <path class="cls-3" d="M133.08,111.38l13.6-16.24c8.69,6.92,18.38,10.58,28.58,10.58,6.55,0,10.07-2.27,10.07-6.04v-.25c0-3.65-2.9-5.67-14.86-8.44-18.76-4.28-33.24-9.57-33.24-27.7v-.25c0-16.37,12.97-28.21,34.12-28.21,14.98,0,26.69,4.03,36.26,11.71l-12.21,17.25c-8.06-5.67-16.87-8.69-24.68-8.69-5.92,0-8.81,2.52-8.81,5.67v.25c0,4.03,3.02,5.79,15.24,8.56,20.27,4.41,32.86,10.96,32.86,27.45v.25c0,18.01-14.23,28.71-35.63,28.71-15.61,0-30.47-4.91-41.3-14.61Z"/>
            <path class="cls-3" d="M215.55,36.34h24.43v32.99h31.35v-32.99h24.43v88.14h-24.43v-33.49h-31.35v33.49h-24.43V36.34Z"/>
            <path class="cls-3" d="M302.05,80.66v-.25c0-25.31,20.4-45.83,47.6-45.83s47.34,20.27,47.34,45.58v.25c0,25.31-20.4,45.83-47.6,45.83s-47.34-20.27-47.34-45.58ZM372.06,80.66v-.25c0-12.72-9.19-23.8-22.67-23.8s-22.29,10.83-22.29,23.55v.25c0,12.72,9.19,23.8,22.54,23.8s22.41-10.83,22.41-23.55Z"/>
            <path class="cls-3" d="M392.46,36.34h25.81l15.36,51,17-51.25h21.03l17,51.25,15.36-51h25.31l-29.46,88.77h-21.28l-17.75-50.74-17.63,50.74h-21.28l-29.46-88.77Z"/>
          </g>
          <g>
            <path class="cls-6" d="M133.08,111.38l13.6-16.24c8.69,6.92,18.38,10.58,28.58,10.58,6.55,0,10.07-2.27,10.07-6.04v-.25c0-3.65-2.9-5.67-14.86-8.44-18.76-4.28-33.24-9.57-33.24-27.7v-.25c0-16.37,12.97-28.21,34.12-28.21,14.98,0,26.69,4.03,36.26,11.71l-12.21,17.25c-8.06-5.67-16.87-8.69-24.68-8.69-5.92,0-8.81,2.52-8.81,5.67v.25c0,4.03,3.02,5.79,15.24,8.56,20.27,4.41,32.86,10.96,32.86,27.45v.25c0,18.01-14.23,28.71-35.63,28.71-15.61,0-30.47-4.91-41.3-14.61Z"/>
            <path class="cls-6" d="M215.55,36.34h24.43v32.99h31.35v-32.99h24.43v88.14h-24.43v-33.49h-31.35v33.49h-24.43V36.34Z"/>
            <path class="cls-6" d="M302.05,80.66v-.25c0-25.31,20.4-45.83,47.6-45.83s47.34,20.27,47.34,45.58v.25c0,25.31-20.4,45.83-47.6,45.83s-47.34-20.27-47.34-45.58ZM372.06,80.66v-.25c0-12.72-9.19-23.8-22.67-23.8s-22.29,10.83-22.29,23.55v.25c0,12.72,9.19,23.8,22.54,23.8s22.41-10.83,22.41-23.55Z"/>
            <path class="cls-6" d="M392.46,36.34h25.81l15.36,51,17-51.25h21.03l17,51.25,15.36-51h25.31l-29.46,88.77h-21.28l-17.75-50.74-17.63,50.74h-21.28l-29.46-88.77Z"/>
          </g>
        </g>
      </g>
      <g>
        <path class="cls-1" d="M206.13,125.9l9.34,28.75c.31.97,1.22,1.63,2.24,1.63h30.23c2.28,0,3.23,2.92,1.38,4.25l-24.46,17.77c-.82.6-1.17,1.66-.85,2.63l9.34,28.75c.7,2.17-1.78,3.97-3.62,2.63l-24.46-17.77c-.82-.6-1.94-.6-2.76,0l-24.46,17.77c-1.84,1.34-4.32-.46-3.62-2.63l9.34-28.75c.31-.97-.03-2.03-.85-2.63l-24.46-17.77c-1.84-1.34-.9-4.25,1.38-4.25h30.23c1.02,0,1.92-.66,2.24-1.63l9.34-28.75c.7-2.17,3.77-2.17,4.47,0Z"/>
        <path class="cls-6" d="M206.13,125.9l9.34,28.75c.31.97,1.22,1.63,2.24,1.63h30.23c2.28,0,3.23,2.92,1.38,4.25l-24.46,17.77c-.82.6-1.17,1.66-.85,2.63l9.34,28.75c.7,2.17-1.78,3.97-3.62,2.63l-24.46-17.77c-.82-.6-1.94-.6-2.76,0l-24.46,17.77c-1.84,1.34-4.32-.46-3.62-2.63l9.34-28.75c.31-.97-.03-2.03-.85-2.63l-24.46-17.77c-1.84-1.34-.9-4.25,1.38-4.25h30.23c1.02,0,1.92-.66,2.24-1.63l9.34-28.75c.7-2.17,3.77-2.17,4.47,0Z"/>
      </g>
    </g>
  </g>
</svg>