<?xml version="1.0" encoding="UTF-8"?>
<svg id="Capa_2" data-name="Capa 2" xmlns="http://www.w3.org/2000/svg" viewBox="0 0 636.69 242.48">
  <defs>
    <style>
      .cls-1 {
        fill: none;
        stroke: #000;
        stroke-miterlimit: 10;
        stroke-width: 12px;
      }

      .cls-2, .cls-3 {
        stroke-width: 0px;
      }

      .cls-3 {
        fill: #fff;
      }
    </style>
  </defs>
  <g id="Layer_3" data-name="Layer 3">
    <g id="OPCION_NEGRA" data-name="OPCION NEGRA">
      <polygon class="cls-2" points="636.69 242.48 0 242.48 60 121.24 0 0 636.69 0 576.69 121.24 636.69 242.48"/>
      <g>
        <g>
          <rect class="cls-1" x="392.82" y="182.93" width="24.93" height="24.55"/>
          <rect class="cls-3" x="392.82" y="182.93" width="24.93" height="24.55"/>
        </g>
        <g>
          <path class="cls-1" d="M464.08,186.96c-12.34,0-21.03-10.33-21.03-23.55v-.25c0-12.84,8.69-23.29,21.03-23.29,8.44,0,14.23,4.03,19.27,10.32l18.38-14.23c-5.73-7.95-13.52-14.12-24.37-16.85h16.5l29.46-88.77h-25.31l-15.36,51-17-51.25h-21.03l-17,51.25-15.36-51h-25.81l29.46,88.77h21.28l17.63-50.74,17.41,49.76c-2.49-.35-5.11-.55-7.9-.55-26.69,0-46.46,20.15-46.46,45.83v.25c0,26.32,20.27,45.58,45.46,45.58,19.52,0,30.72-8.44,39.03-19.89l-18.38-13.09c-5.29,6.42-10.7,10.7-19.9,10.7Z"/>
          <path class="cls-3" d="M464.08,186.96c-12.34,0-21.03-10.33-21.03-23.55v-.25c0-12.84,8.69-23.29,21.03-23.29,8.44,0,14.23,4.03,19.27,10.32l18.38-14.23c-5.73-7.95-13.52-14.12-24.37-16.85h16.5l29.46-88.77h-25.31l-15.36,51-17-51.25h-21.03l-17,51.25-15.36-51h-25.81l29.46,88.77h21.28l17.63-50.74,17.41,49.76c-2.49-.35-5.11-.55-7.9-.55-26.69,0-46.46,20.15-46.46,45.83v.25c0,26.32,20.27,45.58,45.46,45.58,19.52,0,30.72-8.44,39.03-19.89l-18.38-13.09c-5.29,6.42-10.7,10.7-19.9,10.7Z"/>
        </g>
        <g>
          <polygon class="cls-1" points="530.94 186.07 530.94 119.34 506.51 119.34 506.51 207.48 573.63 207.48 573.63 186.07 530.94 186.07"/>
          <polygon class="cls-3" points="530.94 186.07 530.94 119.34 506.51 119.34 506.51 207.48 573.63 207.48 573.63 186.07 530.94 186.07"/>
        </g>
        <g>
          <path class="cls-1" d="M169.26,99.72c-10.2,0-19.89-3.65-28.58-10.58l-13.6,16.24c10.83,9.7,25.69,14.61,41.3,14.61,21.41,0,35.63-10.7,35.63-28.71v-.25c0-16.5-12.59-23.04-32.86-27.45-12.21-2.77-15.24-4.53-15.24-8.56v-.25c0-3.15,2.9-5.67,8.81-5.67,7.81,0,16.62,3.02,24.68,8.69l12.21-17.25c-9.57-7.68-21.28-11.71-36.26-11.71-21.15,0-34.12,11.84-34.12,28.21v.25c0,18.13,14.48,23.42,33.24,27.7,11.96,2.77,14.86,4.78,14.86,8.44v.25c0,3.78-3.53,6.04-10.07,6.04Z"/>
          <path class="cls-3" d="M169.26,99.72c-10.2,0-19.89-3.65-28.58-10.58l-13.6,16.24c10.83,9.7,25.69,14.61,41.3,14.61,21.41,0,35.63-10.7,35.63-28.71v-.25c0-16.5-12.59-23.04-32.86-27.45-12.21-2.77-15.24-4.53-15.24-8.56v-.25c0-3.15,2.9-5.67,8.81-5.67,7.81,0,16.62,3.02,24.68,8.69l12.21-17.25c-9.57-7.68-21.28-11.71-36.26-11.71-21.15,0-34.12,11.84-34.12,28.21v.25c0,18.13,14.48,23.42,33.24,27.7,11.96,2.77,14.86,4.78,14.86,8.44v.25c0,3.78-3.53,6.04-10.07,6.04Z"/>
        </g>
        <g>
          <path class="cls-1" d="M343.65,28.58c-27.2,0-47.6,20.52-47.6,45.83v.25c0,23.29,17.07,42.3,40.98,45.19-12.74,4.04-20.14,13.82-20.14,26.18v.25c0,18.13,14.48,23.42,33.24,27.7,11.96,2.77,14.86,4.78,14.86,8.44v.25c0,3.78-3.53,6.04-10.07,6.04-10.2,0-19.89-3.65-28.58-10.58l-13.6,16.24c10.83,9.7,25.69,14.61,41.3,14.61,21.41,0,35.63-10.7,35.63-28.71v-.25c0-16.5-12.59-23.04-32.86-27.45-12.21-2.77-15.24-4.53-15.24-8.56v-.25c0-3.15,2.9-5.67,8.81-5.67,7.81,0,16.62,3.02,24.68,8.69l12.21-17.25c-8.03-6.45-17.58-10.31-29.29-11.39,19.58-5.83,33.01-23.21,33.01-43.74v-.25c0-25.31-20.15-45.58-47.34-45.58ZM366.06,74.66c0,12.72-8.94,23.55-22.41,23.55s-22.54-11.08-22.54-23.8v-.25c0-12.72,8.94-23.55,22.29-23.55s22.67,11.08,22.67,23.8v.25Z"/>
          <path class="cls-3" d="M343.65,28.58c-27.2,0-47.6,20.52-47.6,45.83v.25c0,23.29,17.07,42.3,40.98,45.19-12.74,4.04-20.14,13.82-20.14,26.18v.25c0,18.13,14.48,23.42,33.24,27.7,11.96,2.77,14.86,4.78,14.86,8.44v.25c0,3.78-3.53,6.04-10.07,6.04-10.2,0-19.89-3.65-28.58-10.58l-13.6,16.24c10.83,9.7,25.69,14.61,41.3,14.61,21.41,0,35.63-10.7,35.63-28.71v-.25c0-16.5-12.59-23.04-32.86-27.45-12.21-2.77-15.24-4.53-15.24-8.56v-.25c0-3.15,2.9-5.67,8.81-5.67,7.81,0,16.62,3.02,24.68,8.69l12.21-17.25c-8.03-6.45-17.58-10.31-29.29-11.39,19.58-5.83,33.01-23.21,33.01-43.74v-.25c0-25.31-20.15-45.58-47.34-45.58ZM366.06,74.66c0,12.72-8.94,23.55-22.41,23.55s-22.54-11.08-22.54-23.8v-.25c0-12.72,8.94-23.55,22.29-23.55s22.67,11.08,22.67,23.8v.25Z"/>
        </g>
        <g>
          <path class="cls-1" d="M315.13,180.03c0-16.5-12.59-23.04-32.86-27.45-12.21-2.77-15.24-4.53-15.24-8.56v-.25c0-3.15,2.9-5.67,8.81-5.67,7.81,0,16.62,3.02,24.68,8.69l12.21-17.25c-7.36-5.9-15.98-9.64-26.38-11.06h3.4V30.34h-24.43v32.99h-31.35V30.34h-24.43v88.14h24.43v-33.49h31.35v33.49h2.94c-16.25,2.68-25.93,13.42-25.93,27.55v.25c0,1.45.1,2.81.28,4.1-.21-.06-.44-.1-.69-.1h-30.23c-1.02,0-1.92-.66-2.24-1.63l-9.34-28.75c-.7-2.17-3.77-2.17-4.47,0l-9.34,28.75c-.31.97-1.22,1.63-2.24,1.63h-26.97c-.02-19.5-14.37-30.94-36.64-30.94h-37.77v88.14h24.43v-25.18h12.09c19.35,0,34.07-8.55,37.25-24.85l20.46,14.86c.82.6,1.17,1.66.85,2.63l-9.34,28.75c-.7,2.17,1.78,3.97,3.62,2.63l24.46-17.77c.82-.6,1.94-.6,2.76,0l24.46,17.77c1.84,1.34,4.32-.46,3.62-2.63l-9.34-28.75c-.31-.97.03-2.03.85-2.63l24.46-17.77c.08-.05.14-.12.2-.18,3.8,11.79,16.44,16.06,32.06,19.62,11.96,2.77,14.86,4.78,14.86,8.44v.25c0,3.78-3.53,6.04-10.07,6.04-10.2,0-19.89-3.65-28.58-10.58l-13.6,16.24c10.83,9.7,25.69,14.61,41.3,14.61,21.41,0,35.63-10.7,35.63-28.71v-.25ZM132.69,151.7c0,6.92-5.29,11.46-13.98,11.46h-11.58v-23.29h11.46c8.81,0,14.1,4.03,14.1,11.58v.25Z"/>
          <path class="cls-3" d="M315.13,180.03c0-16.5-12.59-23.04-32.86-27.45-12.21-2.77-15.24-4.53-15.24-8.56v-.25c0-3.15,2.9-5.67,8.81-5.67,7.81,0,16.62,3.02,24.68,8.69l12.21-17.25c-7.36-5.9-15.98-9.64-26.38-11.06h3.4V30.34h-24.43v32.99h-31.35V30.34h-24.43v88.14h24.43v-33.49h31.35v33.49h2.94c-16.25,2.68-25.93,13.42-25.93,27.55v.25c0,1.45.1,2.81.28,4.1-.21-.06-.44-.1-.69-.1h-30.23c-1.02,0-1.92-.66-2.24-1.63l-9.34-28.75c-.7-2.17-3.77-2.17-4.47,0l-9.34,28.75c-.31.97-1.22,1.63-2.24,1.63h-26.97c-.02-19.5-14.37-30.94-36.64-30.94h-37.77v88.14h24.43v-25.18h12.09c19.35,0,34.07-8.55,37.25-24.85l20.46,14.86c.82.6,1.17,1.66.85,2.63l-9.34,28.75c-.7,2.17,1.78,3.97,3.62,2.63l24.46-17.77c.82-.6,1.94-.6,2.76,0l24.46,17.77c1.84,1.34,4.32-.46,3.62-2.63l-9.34-28.75c-.31-.97.03-2.03.85-2.63l24.46-17.77c.08-.05.14-.12.2-.18,3.8,11.79,16.44,16.06,32.06,19.62,11.96,2.77,14.86,4.78,14.86,8.44v.25c0,3.78-3.53,6.04-10.07,6.04-10.2,0-19.89-3.65-28.58-10.58l-13.6,16.24c10.83,9.7,25.69,14.61,41.3,14.61,21.41,0,35.63-10.7,35.63-28.71v-.25ZM132.69,151.7c0,6.92-5.29,11.46-13.98,11.46h-11.58v-23.29h11.46c8.81,0,14.1,4.03,14.1,11.58v.25Z"/>
        </g>
      </g>
    </g>
  </g>
</svg>